<svg version="1.0" xmlns="http://www.w3.org/2000/svg" viewBox="0 0 922 922"><path d="M466.3 245.5c-1.7.7-4.2 2.8-5.5 4.5-2.2 3.1-2.3 3.7-2.3 24.3-.1 11.7-.4 21.7-.8 22.4-.5.8-1.7.9-4 .3-1.7-.5-7.2-1.4-12.2-2-4.9-.6-12.6-1.8-17-2.7-12.3-2.5-44.8-1.3-61 2.1-27 5.8-25.4 5.1-38.8 17.1-10.1 8.9-16.7 18.6-21.2 31-1.2 3.3-3.6 9.4-5.3 13.5-4.3 10.7-6.1 18-7.2 30-.5 5.8-1.6 13.1-2.5 16.4-1.4 5.1-1.5 18.7-.9 118.5.6 91.1.9 113.1 2 115.3.9 1.6 3 3.3 5.9 4.4 3.9 1.4 5.2 1.5 8.7.5 2.2-.7 5-2.3 6.3-3.6l2.2-2.4.7-112c.5-88.4.9-113.4 2-119.3.8-4 1.7-11.1 2.1-15.8.7-9.5 3.5-20.1 7.1-27.2 1.3-2.6 3.4-7.4 4.6-10.5 2.9-8 6.4-12.8 14.7-20.2 7-6.2 7.5-6.4 16.4-8.2 15.5-3.2 27.1-4.7 28.3-3.8.7.6 1.3 10.9 1.8 30.6.3 16.4 1 32 1.6 34.8.5 2.7 1.4 13.8 2 24.5.5 10.8 1.4 21.8 2 24.5 1.8 8.8 3.2 70.6 2.6 118.7l-.5 46.7-3.2 7c-2.6 5.8-3 7.8-2.5 11.4 1.1 7.4 8.8 12.6 15.9 10.6 4.8-1.3 8-5.2 12.3-14.9l3.7-8.5-.1-82c0-72.2-.2-83-1.7-90-.9-4.4-2-15.9-2.5-25.6-.5-9.7-1.5-22.3-2.4-28-1.8-13-2.8-39.5-1.8-51.4.6-7.3 1-8.9 2.2-8.6.8.2 6.2 1 12 1.7 5.8.8 14.8 2.4 20 3.6 5.2 1.1 14 2.5 19.5 2.9 5.5.4 12.9 1.5 16.5 2.3 3.6.9 8.3 1.6 10.5 1.6 8.8.1 8.1-2.2 8.9 28 .4 14.8 1.2 28.3 1.8 30.2.7 2.1 1.5 30.7 2.3 82.8l1.2 79.5 2.7 8.5c2.9 9 5.8 19.2 8 27.5 1.7 6.4 11.7 24 17.3 30.5 7 7.9 14 8.8 20.8 2.9 6.1-5.4 5.6-11.9-1.5-21.4-7.2-9.6-12.2-20.8-15.5-34.5-.7-3-2.5-9.3-3.9-14l-2.7-8.5-.5-74.5c-.5-69.6-.7-75.1-2.6-83-1.6-7-2-12.2-2-30.3 0-12 .3-22.1.7-22.5.3-.4 11.8-.7 25.4-.7h24.7l4 2.6c6.7 4.4 12.6 11 19.8 21.9 3.8 5.8 8.4 12.3 10.2 14.5 3.4 4.3 7.4 14.3 10.6 27 1.9 7.7 2 12.1 2.7 112.5.5 78.7 1 105 1.9 106.7.6 1.1 3.2 3.1 5.6 4.3 3.8 1.8 5 2 8.4 1.1 2.2-.6 5-2.2 6.4-3.6l2.5-2.4.6-36.2c.9-45.3.7-113.8-.2-154.4l-.8-31-3.2-10.5c-1.8-5.8-4.7-13.7-6.6-17.6-4.5-9.8-26.6-40.4-33.5-46.4-9.7-8.4-16.9-12.8-22.3-13.9-2.9-.5-25.4-1.2-50.2-1.5-47.7-.5-52.1-.9-53-5-.2-1.2-.6-12-.8-24.1-.2-14.1-.8-22.8-1.5-24.2-1.2-2.1-8.7-6.3-11.3-6.3-.8.1-2.8.7-4.6 1.5z"/></svg>