<svg version="1.0" xmlns="http://www.w3.org/2000/svg" viewBox="0 0 922 922"><path d="M205 461v256h512V205H205v256zm275.1-213.1c3.8 3.8 3.9 4 4 11.7.1 4.4.5 15.3.8 24.3l.6 16.4 4 1.3c2.8.9 18.2 1.5 52 2.1l48.1.8 5.2 2.7c11.3 5.9 25.6 20.4 34.8 35.3 1 1.6 4.3 6.6 7.4 11 3.1 4.4 6.8 10.7 8.2 14 4 9.5 7.9 24.2 8.9 33.5 1.1 10.6 1.1 203.7 0 210.4-1 6-4.1 9.1-10 10.1-5.3.9-12.4-2.3-14-6.3-.7-1.8-1.3-36.6-1.9-108.7l-.9-106-2.7-9c-4-13.4-6.2-17.5-18.5-34.6-8.3-11.6-12.9-17-17.8-20.9l-6.5-5.2-24.4-.1c-13.5 0-24.8.3-25.2.7-.4.4-.6 10.7-.6 22.9.1 17 .5 23.8 1.8 29.2 1.5 6.1 1.8 16.4 2.3 82l.5 75 3.5 12c1.9 6.6 4.2 14 5 16.5.8 2.5 2 6.5 2.7 9 1.6 5.5 6.8 15.1 11.3 20.7 5.1 6.4 6.6 10.6 5.3 15.2-1.2 4.5-4.5 7.8-9.6 9.6-5.1 1.7-9.3.2-15.1-5.5-5.6-5.7-16.6-24.7-18.8-32.5-.9-3.3-2.5-8.9-3.5-12.5-1-3.6-3-10.8-4.5-16l-2.7-9.5-.7-77c-.7-67.6-1-77.6-2.4-82-1.2-3.5-1.7-8.6-1.7-17 0-6.6-.3-18.4-.7-26.2l-.6-14.2-6.6-.6c-3.6-.3-9.3-1.2-12.6-2-3.3-.8-10.3-1.7-15.5-2-5.2-.4-13.1-1.5-17.5-2.5s-10.9-2.1-14.5-2.5c-3.6-.4-9.4-1.3-13-2-3.6-.8-6.7-1.1-7-.8-1 1-.3 49.9.9 56.3.6 3.6 1.6 14.6 2.2 24.5.5 9.9 1.8 22.9 2.7 29 1.5 9.7 1.7 20.7 1.7 93.5v82.5l-3.4 8c-4.4 10.4-8.4 14.5-14.3 15.2-7.9.9-14-4-15.2-12.1-.6-3.8-.2-5.4 2.7-11.3l3.4-6.8.5-36.5c.7-51-.7-119.6-2.5-128-.8-3.6-1.8-13.5-2.1-22-.4-8.5-1.4-19.8-2.1-25-.8-5.2-1.7-22.7-2.1-38.9l-.7-29.3-6.1.6c-3.4.4-9.7 1.5-14.1 2.5s-10.1 2.2-12.8 2.5c-3.9.6-5.9 1.8-11.2 6.5-8.9 7.9-12 12.3-16.7 24.3-7.6 19.2-9.7 26.1-9.7 31.9-.1 3-1 10.5-2 16.5-1.8 10.2-2 18.2-2.4 120.9-.3 80.4-.7 110.6-1.5 112.2-4.6 8.6-18.7 8.6-23.3.1-.8-1.6-1.3-33.9-1.7-114.7-.4-103.2-.4-113.2 1.2-119.3.9-3.7 2.1-11.8 2.7-17.9 1.1-13.6 3-21 7.6-30.9 1.9-4.1 4.8-10.9 6.4-15.1 2.8-7.2 6.8-13.5 13.4-21 4.1-4.7 19.1-16.8 22.3-18 7.2-2.8 33.5-7.1 48.2-7.9 14.4-.8 33.3-.1 40.1 1.4 1.3.4 7.4 1.3 13.4 2 6.1.8 11.7 1.7 12.6 2.1 2.5.9 3-3.9 2.8-25-.1-15.8.1-18.9 1.5-21 2.6-3.9 7.5-6.5 12.5-6.5 3.7 0 4.9.6 8.2 3.9z" fill="#FFF" stroke="#FFF" stroke-width="6"/><path d="M628.4 512c0 15.1.2 21.3.3 13.7.2-7.5.2-19.9 0-27.5-.1-7.5-.3-1.3-.3 13.8zm-341 46.5c0 14.3.2 20 .3 12.7.2-7.3.2-19 0-26-.1-7-.3-1-.3 13.3zm26 5c0 14.3.2 20 .3 12.7.2-7.3.2-19 0-26-.1-7-.3-1-.3 13.3z" stroke-width="6" fill="#CCC" stroke="#CCC"/><path d="M628.4 458c0 15.1.2 21.3.3 13.7.2-7.5.2-19.9 0-27.5-.1-7.5-.3-1.3-.3 13.8z" fill="#999" stroke="#999" stroke-width="6"/><path d="M629.4 569.5c0 17 .2 24.2.3 15.8.2-8.3.2-22.3 0-31-.1-8.7-.3-1.9-.3 15.2z" fill="#666" stroke="#666" stroke-width="6"/><path d="M534.4 442.5c0 16.5.2 23.4.3 15.3.2-8.1.2-21.6 0-30-.1-8.4-.3-1.8-.3 14.7zm95 68.5c0 15.7.2 22.1.3 14.2.2-7.8.2-20.6 0-28.5-.1-7.8-.3-1.4-.3 14.3zm-316.9 82.5c0 22.5.1 31.9.2 20.8.2-11.1.2-29.5 0-41-.1-11.4-.2-2.4-.2 20.2z" stroke-width="6" fill="#333" stroke="#333"/><path d="M465.4 246.4c-6.1 2.7-6.4 4-6.4 25.7 0 23.3-.4 26.3-3.4 25.5-1.2-.3-7.6-1.3-14.4-2.1-6.8-.9-14.7-2-17.5-2.6-6.3-1.2-33-1.2-44.7 0-11.9 1.2-35.6 5.8-39.4 7.6-1.8.9-6.1 4.1-9.7 7.3-3.5 3.1-7.6 6.6-8.9 7.7-4.1 3.3-10.1 12.4-15.1 23.1-9.4 20-12.3 29.4-13.4 42.4-.8 10.3-2.5 21.1-3.7 23.3-1.5 2.9-.8 222.7.8 230.5.7 3.4 6 6.2 11.7 6.2 4 0 5.4-.5 7.6-2.8l2.8-2.7.6-61.9c.4-34.1.7-84 .7-111 0-45 .2-49.9 2-58.9 1.1-5.5 2-12 2-14.5 0-7.6 2.5-17.3 8-30.9 6.5-16.1 9.2-20.3 18.3-28.5 7.2-6.5 7.5-6.7 16.3-8.3 19-3.5 28.6-4.7 29.6-3.7.5.5 1.1 13 1.4 27.8.3 14.8 1.1 32.1 1.9 38.4.8 6.3 1.7 18.2 2 26.5.3 8.2 1.3 19.3 2.3 24.5 1.4 8.2 1.6 19.7 1.6 86l.1 76.5-2.9 6.5c-4.8 10.6-3.3 18.6 3.9 21.6 9 3.7 14.3.5 19.9-12.1l4-9V522c-.1-72-.3-83.6-1.7-91.5-.9-5-1.9-16-2.2-24.5-.4-8.5-1.4-20.2-2.3-26-1.6-10.6-2.5-61-1.1-62.5.4-.3 2.4-.2 4.5.4 2.2.6 8.4 1.5 13.9 2.1 5.5.6 12.5 1.8 15.7 2.6 3.1.8 11 1.8 17.6 2.4 6.6.5 13.1 1.4 14.5 1.9 1.3.5 6.9 1.5 12.4 2.2l10 1.2.7 9.6c.3 5.3.6 17.2.6 26.6.1 12 .5 18.8 1.6 23 1.3 5.1 1.6 17.7 2.1 81l.5 75 3.4 11c1.8 6 4 13.7 4.8 17 4.6 18.3 9.9 29.6 20 42.2 4.9 6.2 8.1 7.7 14.2 7 5.5-.6 8.8-3.4 10.2-8.7 1.2-4.8-.3-9.3-5-15.1-7.8-9.5-11.4-17.7-15.3-34.4-.8-3.3-2.7-9.8-4.4-14.5l-2.9-8.6-.7-75.4c-.6-60.5-1-76.7-2.2-81.5-1.7-7.1-2.8-42.8-1.6-49.5l.8-4.5 10.5-.7c5.8-.3 17.2-.4 25.3-.1l14.8.6 7 5.3c4.6 3.5 8.7 7.8 11.7 12.1 2.5 3.8 7.5 10.8 11.1 15.8 7.2 10 14.2 26.4 16 37.5.6 3.8 1.3 47.9 1.7 109.8l.7 103.5 2.6 3c5 5.5 15.5 4.5 19.7-1.8 1.4-2.2 1.6-13 1.6-108.7 0-117.5.4-109.4-6.7-129.7-4.5-12.8-7.2-18.2-12.2-24.7-2.2-2.7-6.9-9.4-10.5-15-7.2-11.1-14.9-19.3-23.5-25-10.3-6.8-12.9-7.4-35.1-7.5-34.3-.1-74.5-1.6-78.3-2.9l-3.6-1.2-.6-11.2c-.4-6.1-.7-17.1-.7-24.3 0-13.1 0-13.3-2.8-16.4-3.3-3.7-9.8-4.8-14.8-2.5z" stroke="#000" stroke-width="6"/></svg>